<?xml version="1.0" encoding="utf-8"?>
<!-- Generator: Adobe Illustrator 23.0.1, SVG Export Plug-In . SVG Version: 6.00 Build 0)  -->
<svg version="1.1" id="Layer_1" xmlns="http://www.w3.org/2000/svg" xmlns:xlink="http://www.w3.org/1999/xlink" x="0px" y="0px"
	 viewBox="0 0 100 15" style="enable-background:new 0 0 100 15;" xml:space="preserve">
<g>
	<path d="M0.1,14.5C-0.1,14.5,0,14.9,0,15C0.3,14.9,0.1,14.4,0.1,14.5z"/>
	<polygon points="2.4,13.2 2.4,13.4 2.7,12.9 	"/>
	<path d="M4.7,13c-0.3-0.8-0.8,0.2-1.2,0l-0.1-0.2l-0.1,0.6C3.7,13.3,4.3,12.8,4.7,13z"/>
	<path d="M6.1,14.5c-0.1-0.3,0.2-0.3-0.3-0.1c0,0,0,0,0.1,0.1C5.9,14.5,6,14.5,6.1,14.5z"/>
	<path d="M5.9,14.6C5.6,14.6,6,14.8,5.9,14.6L5.9,14.6z"/>
	<path d="M6.9,14.3l-0.3,0.3c0.1,0.2,0.4,0.2,0.3,0.3C7.2,14.7,7.2,14.5,6.9,14.3z"/>
	<path d="M7.2,13.7L7,13.8C7.1,13.9,7.1,13.9,7.2,13.7z"/>
	<path d="M6.7,14.1L7,13.8C7,13.7,7,13.4,6.9,13.9C6.9,13.7,6.8,13.9,6.7,14.1z"/>
	<path d="M6.5,14c-0.2-0.2-0.4-0.2-0.1-0.5C5.8,13.6,5.9,14.1,6.5,14z"/>
	<path d="M4.7,12.2L4.5,12l-0.2,0.3C4.4,12.1,4.8,12.4,4.7,12.2z"/>
	<path d="M9,14.5c0-0.2-0.1-0.4-0.2-0.6L8.6,14C8.7,14.1,8.9,14.2,9,14.5z"/>
	<path d="M8.8,13.8l0.3-0.3C8.8,13.5,8.7,13.7,8.8,13.8z"/>
	<polygon points="7.2,12.8 6.7,13.5 7.3,12.8 	"/>
	<polygon points="10.3,14.4 10.1,14.8 10.4,14.1 	"/>
	<path d="M11.2,14.2c-0.1,0.3,0.3,0.5,0.1,0.7c0.2-0.1,0.4-0.4,0.6-0.6C11.7,14.4,11.5,14.4,11.2,14.2z"/>
	<path d="M12.1,13.9c-0.1,0.1-0.2,0.2-0.3,0.4C12,14.2,12.1,14.1,12.1,13.9z"/>
	<path d="M9.7,13.5c0,0.1,0.1,0.4,0.3,0.4l-0.2-0.4C9.8,13.5,9.7,13.5,9.7,13.5z"/>
	<path d="M9.8,13.5L9.8,13.5c0.2,0,0.3,0,0.3,0C10.1,13.5,10,13.5,9.8,13.5z"/>
	<path d="M9.7,13.5C9.7,13.5,9.7,13.5,9.7,13.5C9.7,13.5,9.7,13.5,9.7,13.5z"/>
	<path d="M8.1,13.1c0.2-0.3,0.6-0.6,0.1-1C8.1,12.5,8.4,12.7,8.1,13.1z"/>
	<path d="M9.4,13L9,12.9c0,0.1,0.1,0.3,0,0.4L9.4,13z"/>
	<polygon points="9.6,12.8 9.4,13 9.6,13 	"/>
	<path d="M11.5,13.5c0.1-0.2,0.3-0.3,0.5-0.3c-0.2-0.1-0.4-0.1-0.7-0.1C11.3,13.3,11.2,13.6,11.5,13.5z"/>
	<path d="M10.7,13.5C10.7,13.5,10.7,13.5,10.7,13.5C10.7,13.4,10.7,13.4,10.7,13.5z"/>
	<path d="M13.9,13C13.9,13,13.9,13,13.9,13C13.9,13,13.9,13,13.9,13L13.9,13z"/>
	<path d="M11.3,13.1c-0.2-0.1-0.3,0-0.3,0.2C11.1,13.2,11.2,13.2,11.3,13.1C11.3,13.1,11.3,13,11.3,13.1z"/>
	<path d="M12.7,13.6c-0.1-0.1-0.2-0.2-0.3-0.2C12.5,13.5,12.7,13.8,12.7,13.6z"/>
	<path d="M10.8,13.6C10.8,13.6,10.8,13.6,10.8,13.6C10.8,13.7,10.8,13.6,10.8,13.6z"/>
	<path d="M10.8,13.6c0.1-0.1,0.1-0.2,0.2-0.3c-0.1,0-0.2,0.1-0.3,0.2C10.7,13.5,10.7,13.5,10.8,13.6z"/>
	<path d="M14.2,10c0,0.4-0.4,0.9-0.8,0.4c-0.3,0.4,0,1.7,0.4,2.5c0-0.2,0-0.4,0.3-0.7c-0.2-0.2-0.9-0.5-0.6-0.9
		c0.5-0.3,0.4,0.1,0.7,0.3c-0.3-0.5,0.5-0.8,0.4-1.6l-0.4,0.3C14.2,10.3,14.4,10.1,14.2,10z"/>
	<path d="M13.2,13L13,13.1c0.2,0.1,0.3,0.2,0.6,0.5c0.2-0.2,0.3-0.4,0.3-0.5L13.2,13L13.2,13z"/>
	<path d="M12.4,13.1c0.1-0.5,0.4-0.7,0.1-1.2c-0.4,0.1-0.3,0.4-0.5,0.6C12.7,12.4,11.8,12.9,12.4,13.1c-0.1,0-0.3,0.1-0.4,0.1
		c0.1,0,0.3,0.1,0.4,0.2c0,0,0,0,0,0l0,0c0,0,0,0,0,0c0-0.1-0.1-0.1,0-0.1c0,0,0,0,0,0C12.3,13.2,12.4,13.2,12.4,13.1
		c0.2,0.1,0,0.1,0,0.2c0,0,0,0,0,0.1c0,0,0,0,0,0l0.7-0.3C12.9,13,12.7,13,12.4,13.1z"/>
	<path d="M8.5,11.1c0,0,0,0.1,0,0.1C8.6,11.2,8.6,11.1,8.5,11.1z"/>
	<path d="M8.9,11.4c0,0.1-0.1,0.3-0.2,0.2c-0.2-0.1,0-0.2,0-0.4c-0.1,0.1-0.3,0.4,0,0.6l0-0.1c0.3,0.1,0.7,0.7,0.7,0.7
		C9.2,12.1,9.1,11.8,8.9,11.4z"/>
	<path d="M10.6,12.1l0.6-0.3l-0.3-0.4l0,0.2C10.5,11.7,10.6,11.9,10.6,12.1z"/>
	<polygon points="14,13.3 14,13.8 14.3,13 	"/>
	<polygon points="14.8,13.1 14.8,13.6 15,13.3 	"/>
	<path d="M58.1,3.4l0.2-0.1C58.1,3.3,58.1,3.4,58.1,3.4z"/>
	<path d="M56.8,3.5l0,0.2C56.8,3.6,56.8,3.5,56.8,3.5z"/>
	<path d="M33.8,11.2c0.3,0.4,0.6,1,0.6,0.5l-0.1-0.5C34.1,11.3,34,11.2,33.8,11.2z"/>
	<path d="M46.6,7c0,0-0.1-0.1-0.1-0.1c0,0.2-0.1,0.3-0.1,0.5C46.5,7.3,46.5,7.2,46.6,7z"/>
	<path d="M46.6,5.1L47,5.4C46.9,5.3,46.8,5.2,46.6,5.1z"/>
	<path d="M64.9,2.2l0.2-0.5C64.8,1.8,64.9,2,64.9,2.2z"/>
	<path d="M22.7,12.2c0.2,0.2,0.4,0.2,0.6,0.2C23,12.1,22.8,11.8,22.7,12.2z"/>
	<path d="M58,8.4c0.1-0.1,0.1-0.2,0.1-0.3C58.1,8.2,58,8.3,58,8.4z"/>
	<path d="M23.9,12.3c0,0-0.1-0.1-0.1-0.1c-0.2,0.1-0.3,0.2-0.5,0.2C23.5,12.6,23.8,12.7,23.9,12.3z"/>
	<path d="M90.1,0.1C90.2,0.1,90.2,0.1,90.1,0.1C90.2,0.1,90.2,0.1,90.1,0.1z"/>
	<path d="M97.9,4.1c-0.1,0-0.2,0-0.3,0.1C97.7,4.2,97.8,4.2,97.9,4.1z"/>
	<path d="M17.9,13C17.8,13.1,17.9,13.1,17.9,13L17.9,13z"/>
	<path d="M17,11.2c0-0.1,0-0.1,0-0.2C17,11.1,17,11.2,17,11.2z"/>
	<path d="M25.3,9.2C25.3,9.2,25.3,9.2,25.3,9.2C25.2,9.1,25.3,9.2,25.3,9.2z"/>
	<path d="M17.7,12.8c0.1,0.1,0.1,0.1,0.2,0.1C17.9,12.9,17.8,12.9,17.7,12.8z"/>
	<path d="M17.7,13c-0.1,0-0.1,0-0.1,0C17.6,13.1,17.6,13.1,17.7,13z"/>
	<path d="M18.2,13c-0.1,0-0.2,0-0.3,0c0,0,0.1,0.1,0,0.1C18,13,18.1,13,18.2,13z"/>
	<path d="M76.8,2.7C76.8,2.7,76.8,2.7,76.8,2.7C77,2.5,76.9,2.6,76.8,2.7z"/>
	<path d="M37.7,5.9C37.6,5.9,37.6,5.9,37.7,5.9C37.6,5.9,37.7,5.9,37.7,5.9L37.7,5.9z"/>
	<path d="M38.2,5.4C38,6.1,37.9,6,37.7,5.9L38,7.2L38.2,5.4z"/>
	<path d="M61.1,3l-0.5-0.4C61.1,1.8,61.4,2,61,1.5c0.1,1.5-1.6,0.3-1.5,1.8L59.2,3c0.1,0,0.1-0.1,0.2-0.1c-0.6-0.7-0.3,1.1-1,1
		c-0.2-0.1-0.4-0.3-0.3-0.5l-0.5,0.4c-0.2,0-0.1-0.3,0-0.3l-0.8,0.2l0,0c-0.1,0.2-0.3,0.6-0.4,0.8c-0.2-0.2,0.1-0.2,0-0.3l-0.4,0.4
		c-0.2-0.4,0.1-0.8,0.4-0.7C55.8,2.4,56,4.2,55,3.5l0.4-0.2c-0.4-0.8-0.7-0.5-1.2-0.9c0.1,0.3,1.1,1.2,0.6,1.6
		c-0.1-0.1-0.3-0.1-0.6,0.2c-0.1-0.5-0.3-0.4-0.6-0.3l0-0.7c-0.3,0.2-0.3,0.6-0.4,0.9c-0.4,0-0.5-0.6-0.7-1c-0.6,0,0.5,0.8-0.2,1
		c-0.5-0.2-0.9,0.1-1.5,0.6c-0.4-0.2,0-0.4-0.1-0.6l-0.3,0.6c-0.1,0-0.1-0.2-0.1-0.3c-0.2,0.2,0,0.7-0.4,0.9c0,0.8-1-1-1.4-0.1
		c-0.1-0.2,0-0.4,0-0.7C48,5.1,48,4.9,47.5,5.8L47,5.4c0.4,0.5,0,1.1-0.4,1.7c0.2,0.2,0.3,0.4,0.4,0.5L46.4,8c-0.1-0.1,0-0.3,0-0.6
		c0,0.1-0.1,0.1-0.1,0.2c-0.3-0.2-0.2-0.6,0-1c0.1,0.1,0.2,0.3,0.3,0.4c0.1-0.4,0.2-0.9,0.2-1.3c0,0.1-0.1,0.2-0.2,0.2
		c0-0.1,0-0.2,0-0.3c0-0.1-0.1,0.1-0.2,0.3L46.1,5l0,0.3l-0.9-0.4c-0.5,0.8-1,2-1.9,2.5c0.2-0.6,0-0.9-0.1-1.6
		c0.3,0.7,0.7-0.4,1.3-0.3c-0.3,0-0.2-0.4-0.2-0.5l-0.8,0.7c0-0.6-0.2-0.4-0.5-0.6C43.2,6.2,42.3,6,42,6.3c-0.1-0.4,0-0.7,0.5-0.7
		c-0.6-0.8-0.5,1.3-1.1,0.7c0.1,0,0.2,0,0.2-0.2c-0.2,0.3-0.9,0.2-0.8-0.2l0.1,0c-0.7-0.1-2.2,0.2-2.2,1.1c0-0.1,0-1.1,0-1.3l-1,3.2
		c0-0.8-0.6-2.6,0-3.1c-0.2-0.1-0.4-0.2-0.8,0.1c0.1,0.1,0.4,1.1,0.3,1.2c-0.5-0.8-0.4-0.4-1-1.1c0.2,0.2,0.1,1.4-0.2,1.4
		c0-0.2-0.1-1.2-0.1-1.4l-0.6,1.3c0.2-0.2-0.1-1-0.3-1.4c0.1,0.2-0.6,0-0.8,0.2l0.3,0.3c-0.8-0.1-0.6,1.8-1.4,1.8
		c0.1-0.3,0.1-1.6-0.3-1.7c-0.1,0.6-0.5,3.1-1.2,3.6l-0.2-0.3l-0.5,0.5c0.2-1,1-3,1.4-3.9c-0.3-0.3-0.1-0.4-0.6-0.3
		c-0.2-0.3,0.2-0.5,0.3-0.6l-1.1-0.1c0.1,0.7-0.7,0.8-0.6,1.4l1-0.9c0.1,0.7-0.4,2.1-1.2,2.1c-0.2-0.3,0-1.3,0-1.5
		c-0.1,0.3-0.6,0.5-0.7,0.4l0.3-0.4c-0.4-0.2-0.6,1-1.1,0.4c-0.2,0-0.6-0.9-0.6-0.5c0.4,0.8,0.7,3.4,0.5,4c-0.1,0-1-0.7-1.2-1.1
		c-0.3-0.6,0.3-1.6,0-2.1c0,0.2-0.1,0.5-0.2,0.5c-0.2-0.2,0-0.6-0.4-0.5c0,0.7-0.8,0-0.1,0.6c-0.4,0.2-0.4-0.1-0.9,0
		c0.2,0.5-0.2,1.7-0.6,1.9c0-0.2-0.1-0.4-0.2-0.5c-0.8,0-1.2-0.3-1.9-0.2c-0.1-0.2-0.5-0.4-0.3-0.7c-0.1,0.1-0.2,0.4-0.4,0.4
		c-0.5-0.6,0.5-0.1,0.1-0.9c0,0.4-0.5,0.6-0.8,0.9c0.2,0.7,0.7,0.1,1-0.2c0.1,0.9-0.4,1.9-1.1,2.4c-0.6,0.3-0.3-0.6-0.4-0.4
		c-1.1,0-0.8,1.7-1.8,1.1c-0.4-0.5-0.1-1.2-0.3-1.6c0.5-0.3,0.8,0.3,1.1,0.2l-0.4-0.2c0.1-0.2,0.4-0.4,0.6-0.2
		c-0.4-0.5-1.9,0.1-2.8-0.3c-0.1,0.2-0.4,0.4-0.2,0.7l0.3-0.1c0.3,0.4-0.5,0.7-0.1,0.9c-0.3,0.4-0.7,0.9-1.2,0.7l-0.2-0.7
		c0,0.2,0.4,0.4,0.5,0.1c-0.2,0.3-0.9-0.8-1,0.1l0.4,0.4c-0.3,0.4-0.7,1.1-1.2,1c0.3,0.6,0.1-0.1,0.5,0.6c-0.4-0.9,1.2-0.1,0.6-1
		c0.4,0.9,0.6,0.3,1.1,1c0-0.2-0.2-0.4,0.2-0.3c0-0.1,0-0.2,0.1-0.2c0,0,0,0,0,0c0,0,0,0,0,0c0,0,0,0,0,0c-0.1-0.1-0.2-0.2-0.2-0.3
		c0.1-0.5,0.8-0.6,0.9-0.8c0.2,0.1-0.1,0.3,0.1,0.5l0.3-0.4c0.1,0.5,0.7,0.7,0.2,1.1l0.5,0c0.3,0.2,0.7,0.3,0.9,0.1
		c0.2,0.1,0.5-0.6,0.4-0.2l0.7-0.4l0,0.1c0.8,0,1.5-1,2.4-0.2c0.2-0.1,0.5-0.3,0.9-0.2l0.1,0.4c0.3-0.2,1,0.3,1.1-0.1
		c0.5,1.1,1.6,0.1,2.2,0.2l0-0.6c0.4,0,0.8-0.2,1.2-0.5L29.3,11c0.4-0.4,1.1,0.2,1.8,0.1c0,0.2-0.2,0.2-0.3,0.1c0.9,1,1.6-1,2.4-0.2
		c0.2-0.2,0.3-0.1,0.4,0c0,0,0,0,0,0c0,0,0,0,0.1,0c0.1,0.1,0.2,0.2,0.3,0.2c-0.1-0.1-0.2-0.2-0.2-0.2c0.1,0,0.3-0.1,0.5-0.2
		l0.1,0.5c0,0,0,0,0,0c0.2,0.2,0.1-0.3,0-0.6c0.1-0.1,0.2-0.2,0.2-0.3c0.2,0.8,0.5-0.3,0.8,0.5c0.1-0.5,1-0.4,1-1.4
		c0,0.1,0.1,0.2,0,0.2c0.2,0.1,0.5,0.2,0.7-0.1l0.2,0.7l0.4-0.9c0.3,0.4,0.5,0.6,0.2,1.1c0.7-0.9,0.6-0.4,1.1-1.2l0,0.4
		c0.2,0,0.5-0.6,0.7-0.3c0.6,0.8,2.5-0.1,3.8,0.5c-0.4-1.2,0.6,0.5,0.6-0.5c0.1,0.3,0.3,0.4,0.1,0.7c0.6-0.4,1,0.4,1.4-0.5
		c0.1,0.3-0.1,0.5,0,0.6c0-0.1,0.2-0.3,0.3-0.1c0.1,0.2-0.1,0.3-0.2,0.4c0.7-0.1,0.6-1,0.6-1.9c0.4,0.4,0.5,0.3,0.7-0.3
		c0.1,0.3,0.4,0.5,0,0.7c0.2,0,1.5,0.3,1.4-0.4c0.1,0.2,0.3,0,0.4-0.1c0.5,0,0.6,0,1.1-0.1l-0.2-0.1c0.1-0.9,0.4-0.2,0.8-0.4l0,0.1
		c1,0.5,0.4-0.3,1.4,0.3l-0.1-0.5c0-1.1,0.9,0.6,1.4,0.1l-0.2-0.3c0.3-0.4,1,1.4,1.3,1.5c0.1,0.1-0.1,0.2-0.2,0.2
		c0.8,0.6,0-0.7,0.6-0.9c0.1,0.4,0,0.9,0.3,1c0.2,0.3,1-1.3,1.6-0.7c-0.1-0.3-0.3-0.5,0-0.8c0.4-0.1,1.2,1,1.5,0
		c0.1,0.1,0.1,0.1,0.1,0.2c0.3-0.3,1-0.5,1.1-1c0.5,1.8,1.9-1.1,2,0.6l1-0.2l0,0.2c0.6,0,0.8-0.4,1-0.8c0.2,0.1,0.1,0.3,0.1,0.4
		c0.9,0.2,1,0.2,1.7-0.7l0.1,0.5c0.2-0.3,1.4,0.7,2.2,0c0,0.1,0,0.2-0.1,0.3c0.9-0.7,2.5,1.2,2.7-0.7L70.6,6c-0.9-0.1,0-0.9-0.3-1.1
		c0.3-0.1,0.9,0.5,0.5,0.6l-0.1-0.1c-0.1,1,1.1,0.3,1.1,0.9c1.7-0.2,3.4,0.2,4.9,0.1l-0.3-0.8l0.6,0c0.2,0.2,0.3,0.6-0.1,0.6
		c0.2,0.4,0.6-0.4,0.6-0.6c0.8,0.2-0.2,1,0,0.9l0.3-0.1l-0.1-0.1c0.2-0.3,0.2-0.7,0.7-0.7c0.3,0.1,0.2,0.5,0.3,0.5
		c0,0.1,0,0.1,0.2,0l0.7,0l-0.3-0.6c0.3-0.3,0.7,0,0.3-0.7c0.6,1,2.6,0.1,2.9,0.4c0.4-0.5,0.8-0.5,1.3-0.5c-0.1-0.1-0.3-0.8,0.2-0.8
		c0,1.5,0.9,0.5,1.4,1.6c-0.4-0.7,1.3-0.3,0.7-1.2c0.4,0.1,0.1,0.5,0.4,0.9c0.8-0.7,2,0.2,3.1-0.1c0-0.2-0.2-0.5,0-0.8l0.7,0.9
		c0.2-0.1,0.1-1.1,0.6-0.5c-0.1-0.2-0.2-0.4,0-0.5c2.3,0.7,4.4-1.2,6.7,0.3c-0.3-0.3-0.1-0.4,0.1-0.4c-0.2-0.1,0-0.5-0.1-0.7l1,0.6
		c0.1-0.7,1-0.1,1-0.8l-0.3,0.2c0.3-0.8-0.7-1.7-0.8-2.8c-0.3,1-1.3-1.2-1.9,0.1c-0.2-0.2,0.1-0.3,0-0.6c-0.1,0.5-0.3,0.6-0.8,0.4
		l0-0.1c-1.1,0.2-1.7-0.2-3-0.3l0.1,0.5c-0.3,0-0.4-0.2-0.5-0.3c-0.2,0.8,0.8,0,0.6,0.9c-0.5-1-1.9,0.2-2.3-1
		c-0.4,0,0.2,0.6-0.2,0.6l-0.1-0.3l-0.1,0.4c-0.3,0-0.5-0.4-0.5-0.7c0.1,0,0.2-0.1,0.3-0.1c-0.4-0.3-1,0.2-1.1,0.1l0.4,0.2
		c-1.1,0.4-2.6,0.1-3.6,0.9l0.1,0.2c-0.8,0.5-0.7-0.2-1.6,0.1l0-0.1c-0.2,0.3-0.4,0.4-0.7,0.4c0.2-0.3-0.5-0.5-0.2-0.8
		c-0.9,0.6-0.4,0.4-0.9,1.4l-0.2-0.4c-0.2,0.4-0.2,0.6-0.6,0.7c0.3-0.4-0.4-0.6,0-1.1c-1.1-0.8-1.4,1-1.9-0.2
		c-0.3,1.2,0.9,0.5,0.7,0.8c0.2,0.3-0.3,0.9-0.6,0.8c-0.3,0-0.7-1.4-1.5-1.3c0.1,0,0.1-0.1,0.2-0.1c-0.3-0.3-0.5,0.4-0.9,0
		c-0.1,0.7-0.5,0-0.4,0.9l0.7-0.3c-0.4,0.3-0.7,1.3-1.4,0.9c0-0.2,0.2-0.4,0.3-0.6c-0.2-0.2-0.4,0.2-0.6,0c0-0.9,0.9-0.3,1.2-1
		c-0.2-0.3-0.8,0.7-0.6-0.2c-0.2,1.2-0.8-0.1-1.2,0.9l0-0.5c-0.1,0.1-0.2,0.3-0.4,0.4l0.2-0.7C75,2.1,74.5,1,74.1,1.4
		C75,1.3,74.4,2,74.8,2.3c-1,0.8-0.7-1.3-1.9-0.9c0.2-0.1,0.6,0.2,0.4,0.5c-0.2-0.1-0.6-0.2-0.7-0.5c-0.8,0.2,0.2,0.5-0.1,0.9
		c-0.3-0.6-0.4,0.3-0.7,0.5l-0.1-0.5c-0.9-0.2-0.1,1.1-1,0.8l0.3-0.8l-0.4,0.2l0-0.6c-0.4,0.5-0.6,0.4-1,0.3c0.1,0.4,0,1-0.4,1
		c-0.3-0.3,0.1-0.5-0.5-0.4c0.1-0.3,0.2-0.8,0.5-0.3c0-0.2,0.1-0.3,0.1-0.5c-0.3-0.3-0.7,0-1,0c0.1,0,0.2,0,0.2,0.1L67.8,3
		c-0.1-0.2-0.1-0.4,0-0.5c-0.2,0.1-0.3,0.3-0.5,0.4c0-0.4,0-0.9,0.3-1.1l-0.7,0.5c-0.1-0.2-0.5-0.5-0.4-0.6c-0.5-0.2-1,0.9-1.6,0.7
		c0,0.1-0.1,0.2-0.2,0.2c-0.6,0-1.1-0.5-1.7,0.1L62.6,2c-0.5,0.2,0.6,0.9-0.2,1.3c-0.6,0.3-0.3-0.6-0.5-0.8
		c-0.3,0.4-0.7,1.2-1.3,0.7C60.8,2.9,60.9,3,61.1,3z M54.9,3.9c0.1-0.1,0.3-0.5,0.4-0.2C55.3,4.4,55.1,4.1,54.9,3.9z M45.6,6.1
		C45.7,6,45.8,6,46,6.2C45.9,6.3,45.8,6.3,45.6,6.1z M19.7,12.4C19.7,12.4,19.7,12.4,19.7,12.4C20,12.6,19.9,12.5,19.7,12.4z
		 M19.1,12.2c0,0.1,0,0.2,0,0.2c0-0.1,0.2-0.2,0.3-0.1C19.4,12.2,19.3,12.1,19.1,12.2z M78.9,6l-0.1-0.1C79,5.7,78.9,5.9,78.9,6z"/>
	<path d="M46.6,5.3c0,0.1,0.1,0.2,0.1,0.3C46.7,5.5,46.7,5.4,46.6,5.3z"/>
	<path d="M64.9,2.3C64.9,2.3,64.9,2.3,64.9,2.3C64.9,2.3,64.9,2.2,64.9,2.3L64.9,2.3z"/>
	<path d="M27.3,6.9c0.1,0.1,0.2,0.2,0.2,0.2C27.6,7.1,27.5,7,27.3,6.9z"/>
	<path d="M16.3,13.4l0.3-0.2c-0.2,0-0.2-0.1-0.3-0.1C16.3,13.2,16.4,13.4,16.3,13.4z"/>
	<path d="M12.8,10.5c0,0.1-0.1,0-0.2,0.1l0,0.2C12.9,10.8,13.1,10.6,12.8,10.5z"/>
	<path d="M15.8,11.7c-0.1-0.4-0.3-0.3-0.5-0.2c0,0,0,0,0,0C15.3,12.2,15.5,12,15.8,11.7z"/>
	<path d="M15.2,11.6c-0.1,0-0.2,0-0.2,0C14.9,11.9,15,11.7,15.2,11.6z"/>
	<path d="M18.4,12.6c-0.1-0.1,0,0.6-0.1,0.4C18.3,13.6,19.1,12.2,18.4,12.6z"/>
	<polygon points="15.4,10.3 15.6,10.8 15.7,10.4 	"/>
	<path d="M17.4,10.5L17,10.4c0,0.1,0,0.1-0.1,0.2C17.2,10.6,17.4,10.7,17.4,10.5z"/>
	<path d="M16.9,10.6c-0.1,0-0.2,0-0.3,0.1C16.7,10.7,16.8,10.7,16.9,10.6z"/>
	<polygon points="15.9,10.1 16.1,10.2 16.4,10.2 	"/>
	<path d="M21.7,10.2l0.4-0.2c0-0.2-0.1-0.3-0.3-0.2C21.8,9.9,21.6,10,21.7,10.2z"/>
	<path d="M20.3,8.8c0.1,0.1,0.1,0.2,0.2,0.4l-0.1-0.7L20.3,8.8z"/>
	<path d="M21.5,8.5c0-0.2,0.6-0.6,0-0.5C21.5,8.2,21.1,8.4,21.5,8.5z"/>
	<polygon points="28.2,8.7 28.1,8.7 28.2,9.8 	"/>
	<path d="M33.7,5.5c-0.5-0.2-0.1,0.7-0.6,0.4c-0.1,0.3,0.4,0.2,0.3,0.5C33.7,6.1,33.9,6.2,33.7,5.5z"/>
	<path d="M33.4,6.4c0,0-0.1,0.1-0.1,0.2C33.4,6.5,33.4,6.4,33.4,6.4z"/>
	<polygon points="99.2,4.5 99.6,4.7 99.3,4.4 	"/>
	<path d="M99.8,3.7l0.1,0.7l0.1-0.7C100,3.7,99.8,3.8,99.8,3.7z"/>
	<path d="M53.9,2.6l0,0.2C53.9,3,54,3,54.2,3L53.9,2.6z"/>
	<polygon points="58.4,2.7 58.3,2.7 58.5,3.3 	"/>
	<path d="M62.1,1.5c-0.2,0-0.3,0.1-0.5,0.1C62,1.5,62.2,2.3,62.1,1.5z"/>
</g>
</svg>
